<?xml version="1.0" standalone="no"?>
<!DOCTYPE svg PUBLIC "-//W3C//DTD SVG 20010904//EN"
 "http://www.w3.org/TR/2001/REC-SVG-20010904/DTD/svg10.dtd">
<svg version="1.0" xmlns="http://www.w3.org/2000/svg"
 width="480.000000pt" height="445.000000pt" viewBox="0 0 480.000000 445.000000"
 preserveAspectRatio="xMidYMid meet">

<g transform="translate(0.000000,445.000000) scale(0.100000,-0.100000)"
fill="#000000" stroke="none">
<path d="M1728 4260 c-2 -16 -22 -28 -85 -50 -237 -82 -439 -244 -564 -452
-23 -38 -40 -70 -38 -72 7 -6 47 -26 52 -26 3 0 31 38 62 85 97 146 239 272
390 348 41 20 188 77 200 77 1 0 6 -11 9 -25 7 -26 7 -26 87 36 43 34 78 63
76 65 -4 4 -157 34 -174 34 -6 0 -13 -9 -15 -20z"/>
<path d="M3681 3960 c-9 -28 -8 -31 22 -44 56 -23 170 -97 232 -149 119 -101
221 -237 279 -373 l25 -59 -24 -10 c-24 -11 -23 -12 44 -85 78 -85 75 -86 86
43 7 77 6 79 -14 72 -18 -5 -24 1 -41 42 -107 254 -281 444 -517 562 -34 17
-67 31 -72 31 -5 0 -14 -14 -20 -30z"/>
<path d="M707 3193 c-70 -49 -76 -56 -60 -68 16 -12 14 -19 -26 -105 -87 -188
-120 -414 -87 -610 22 -136 38 -176 67 -172 37 4 42 16 25 71 -62 208 -33 499
70 703 33 66 30 63 49 48 9 -7 18 -10 21 -7 8 7 26 155 22 178 -2 14 -17 7
-81 -38z"/>
<path d="M3443 3043 c-36 -18 -38 -39 -7 -91 19 -34 13 -99 -11 -109 -8 -3
-36 8 -62 23 -47 27 -48 27 -32 4 8 -13 31 -31 50 -41 51 -27 59 -37 59 -74 0
-33 -2 -35 -32 -35 -18 0 -45 11 -66 27 -19 14 -33 20 -30 12 2 -8 35 -35 72
-61 51 -35 62 -47 45 -46 -13 1 -29 5 -35 10 -22 16 -54 18 -54 2 0 -25 -19
-15 -23 14 -2 15 -3 7 -1 -18 3 -25 9 -46 14 -48 13 -5 13 -45 0 -58 -21 -21
-5 -154 19 -154 4 0 8 -7 8 -16 0 -15 -2 -15 -13 0 -7 10 -15 13 -17 8 -10
-15 52 -44 81 -38 19 5 23 4 12 -3 -43 -29 95 -26 162 3 14 6 15 12 8 27 -9
15 -3 26 30 59 41 41 60 50 60 28 0 -9 4 -8 10 2 5 8 10 10 10 4 0 -6 -7 -17
-15 -24 -12 -10 -15 -10 -15 0 0 14 -14 4 -16 -11 -1 -5 -2 -13 -3 -18 0 -6
-9 -8 -18 -7 -25 5 -46 -19 -29 -33 9 -8 24 0 58 32 51 46 112 142 84 131 -9
-3 -13 -10 -10 -15 5 -8 -11 -17 -63 -33 -35 -11 -48 25 -26 72 15 31 18 64
18 212 0 188 -7 221 -59 262 -27 23 -119 23 -163 1z m173 -581 c1 -15 -1 -21
-3 -14 -3 8 -11 5 -24 -10 -17 -20 -17 -19 2 15 11 20 22 37 22 37 1 0 3 -12
3 -28z m-76 -82 c0 -5 -4 -10 -9 -10 -5 0 -18 -3 -28 -6 -16 -5 -16 -4 1 10
23 18 36 20 36 6z"/>
<path d="M3382 2937 c-13 -15 1 -42 17 -33 13 9 15 33 2 40 -5 3 -13 0 -19 -7z"/>
<path d="M3256 2477 c3 -10 9 -15 12 -12 3 3 0 11 -7 18 -10 9 -11 8 -5 -6z"/>
<path d="M3283 2452 c-8 -5 -4 -14 13 -29 13 -12 26 -17 29 -13 3 5 -1 12 -8
17 -8 4 -16 13 -18 20 -2 7 -9 9 -16 5z"/>
<path d="M3590 2241 c0 -16 3 -43 6 -60 l7 -31 36 22 c56 33 56 33 2 67 l-51
31 0 -29z"/>
<path d="M4236 2208 c9 -25 73 -65 127 -79 36 -9 58 -9 95 1 55 13 112 46 111
63 0 8 -2 8 -6 0 -2 -7 -11 -13 -18 -13 -7 0 -26 -7 -41 -15 -46 -24 -153 -20
-206 8 -23 12 -49 29 -56 37 -10 13 -11 13 -6 -2z"/>
<path d="M760 2163 c-63 -23 -159 -80 -160 -94 0 -4 12 -10 28 -13 37 -10 212
-98 212 -107 0 -5 7 -5 17 -2 10 4 14 2 10 -4 -4 -6 2 -18 12 -28 16 -13 19
-14 17 -2 -1 8 -7 21 -13 28 -6 8 -14 25 -18 39 -4 14 -11 27 -15 30 -13 8
-70 120 -62 120 4 0 13 9 20 20 11 18 10 20 -10 19 -13 0 -30 -3 -38 -6z"/>
<path d="M3660 2152 c0 -5 7 -15 15 -22 8 -7 15 -8 15 -2 0 5 -7 15 -15 22 -8
7 -15 8 -15 2z"/>
<path d="M222 2089 c-69 -9 -158 -35 -167 -49 -12 -20 17 -18 84 5 39 13 91
27 116 31 25 3 45 10 45 15 0 5 -3 8 -7 8 -5 -1 -37 -5 -71 -10z"/>
<path d="M3740 2065 c7 -8 17 -15 22 -15 6 0 5 7 -2 15 -7 8 -17 15 -22 15 -6
0 -5 -7 2 -15z"/>
<path d="M4218 2053 c7 -3 16 -2 19 1 4 3 -2 6 -13 5 -11 0 -14 -3 -6 -6z"/>
<path d="M3824 2016 c23 -18 36 -20 36 -6 0 6 -4 10 -9 10 -5 0 -18 3 -28 6
-16 5 -16 4 1 -10z"/>
<path d="M4133 2023 c-7 -2 -13 -8 -13 -13 0 -10 38 -1 46 11 6 10 -13 11 -33
2z"/>
<path d="M3920 1990 c20 -13 40 -13 40 0 0 6 -12 10 -27 10 -22 0 -25 -2 -13
-10z"/>
<path d="M4020 1991 c0 -4 11 -6 25 -3 14 2 25 6 25 8 0 2 -11 4 -25 4 -14 0
-25 -4 -25 -9z"/>
<path d="M4357 1823 c-20 -210 -137 -443 -306 -608 l-62 -60 -17 22 c-17 22
-17 21 -64 -67 -25 -50 -41 -90 -35 -90 21 1 168 37 174 44 3 3 1 12 -6 20 -9
11 2 27 60 82 101 97 163 182 225 309 59 121 91 232 101 343 l6 72 -35 0 -35
0 -6 -67z"/>
<path d="M982 1824 c10 -10 20 -16 22 -13 3 3 -5 11 -17 18 -21 13 -21 12 -5
-5z"/>
<path d="M214 1747 c18 -158 150 -253 426 -307 333 -65 532 -138 639 -236 l37
-33 21 107 c12 59 25 116 28 127 4 11 3 16 -2 10 -9 -11 -38 -13 -48 -3 -4 4
-12 5 -19 2 -6 -2 -27 27 -48 70 -33 67 -122 196 -134 196 -3 0 3 -12 14 -27
46 -66 132 -260 132 -300 0 -10 -8 -12 -27 -7 -16 4 -30 10 -33 13 -3 3 -14 8
-25 9 -10 2 -32 15 -48 28 -29 24 -147 84 -176 89 -9 1 -19 -2 -22 -8 -4 -5
-10 -1 -13 10 -5 15 -27 25 -94 42 -48 12 -99 24 -114 27 -44 7 -170 54 -207
77 -48 29 -93 37 -108 18 -11 -14 -12 -12 -13 9 0 23 -5 26 -36 28 -53 4 -91
27 -114 70 l-21 37 5 -48z"/>
<path d="M1045 1760 c3 -5 8 -10 11 -10 2 0 4 5 4 10 0 6 -5 10 -11 10 -5 0
-7 -4 -4 -10z"/>
<path d="M996 1718 c3 -4 12 -8 20 -8 8 0 14 4 14 8 0 4 -9 8 -19 8 -11 0 -17
-4 -15 -8z"/>
<path d="M1010 1609 c0 -11 27 -12 34 -1 2 4 -4 9 -15 9 -10 1 -19 -2 -19 -8z"/>
<path d="M1044 1173 c3 -16 11 -58 17 -95 10 -64 12 -67 31 -57 17 9 23 8 30
-6 6 -9 37 -48 70 -86 151 -176 357 -299 584 -349 46 -10 85 -15 88 -12 11 11
6 63 -6 66 -7 2 -53 13 -103 25 -180 44 -370 159 -491 295 -32 37 -66 78 -74
92 -13 21 -13 25 5 38 18 13 14 17 -60 65 -44 28 -84 51 -88 51 -5 0 -6 -12
-3 -27z"/>
<path d="M2676 736 c3 -8 13 -17 22 -21 13 -5 13 -2 -3 15 -21 24 -26 25 -19
6z"/>
<path d="M2955 730 c-16 -17 -16 -20 -3 -15 9 4 19 13 22 21 7 19 2 18 -19 -6z"/>
<path d="M2570 624 l-55 -14 58 4 c39 3 55 1 51 -6 -4 -6 -1 -9 7 -6 8 3 22 1
32 -4 18 -9 22 -1 11 26 -7 19 -28 18 -104 0z"/>
<path d="M2977 621 c-3 -12 1 -22 9 -25 8 -3 14 -1 14 4 0 5 7 7 15 4 8 -4 15
-2 15 4 0 6 8 9 18 7 101 -20 110 -11 10 11 -80 17 -75 17 -81 -5z"/>
<path d="M2730 331 c23 -12 86 -23 75 -12 -6 4 -28 11 -50 14 -23 4 -34 3 -25
-2z"/>
<path d="M2858 323 c7 -3 16 -2 19 1 4 3 -2 6 -13 5 -11 0 -14 -3 -6 -6z"/>
<path d="M2865 240 c-13 -6 -15 -9 -5 -9 8 0 22 4 30 9 18 12 2 12 -25 0z"/>
<path d="M2763 233 c9 -2 23 -2 30 0 6 3 -1 5 -18 5 -16 0 -22 -2 -12 -5z"/>
</g>
</svg>
